<?xml version="1.0" encoding="UTF-8"?>
<svg id="Layer_1" data-name="Layer 1" xmlns="http://www.w3.org/2000/svg" viewBox="0 0 432 432">
  <defs>
    <style>
      .cls-1 {
        font-family: BaskOldFace, 'Baskerville Old Face';
        font-size: 24px;
        letter-spacing: .05em;
      }

      .cls-2 {
        fill: #b41f24;
        stroke: #000;
        stroke-miterlimit: 10;
        stroke-width: 1.19px;
      }
    </style>
  </defs>
  <path d="M231.9,273.86s-.07.02-.07.02l.05-.05s.02,0,.02.02Z"/>
  <g>
    <path class="cls-2" d="M176.81,117.34c0,4.7-3.17,9.57-9.5,14.63,5.77,8.74,8.65,16.8,8.65,24.17,0,1.81-.53,2.71-1.58,2.71-.84,0-1.26-1.19-1.26-3.58,0-7.23-2.47-14.56-7.39-22-10.21,7.8-24.08,14.54-41.64,20.21-17.56,5.67-33.12,8.51-46.7,8.51-1.9,0-3.55-.07-4.96-.22-11.26,16.11-16.89,31.65-16.89,46.6,0,10.19,3.08,18.24,9.24,24.17,6.15,5.92,14.55,8.89,25.17,8.89,20.05,0,37.93-9.86,53.62-29.59,9.5-11.92,14.25-23.23,14.25-33.92,0-5.64-1.65-10.12-4.95-13.44-3.3-3.32-7.69-4.99-13.17-4.99-8.78,0-18.21,4.75-28.29,14.25-10.08,9.5-15.12,18.37-15.12,26.61,0,.72.21,1.08.63,1.08.35-.07.63-.22.84-.43,1.88-1.73,3.63-2.6,5.23-2.6,3.56,0,5.33,1.99,5.33,5.96,0,5.35-2.53,8.02-7.6,8.02-4.64,0-6.97-2.89-6.97-8.67,0-10.33,5.1-20.57,15.31-30.72,10.2-10.15,20.54-15.23,31.03-15.23,13.51,0,20.27,7.62,20.27,22.87s-7.34,30.11-22.01,43.08c-14.67,12.97-30.94,19.45-48.81,19.45-12.45,0-22.92-4.3-31.4-12.9-8.48-8.6-12.72-19.22-12.72-31.86s4.18-24.89,12.56-37.82c-30.47-5.78-45.7-18.13-45.7-37.06,0-11.27,5.66-20.7,16.99-28.29,11.33-7.59,25.44-11.38,42.32-11.38,23.57,0,47.39,8.06,71.45,24.17,4.15-.87,8.41-1.3,12.77-1.3,14,0,21,3.54,21,10.62ZM140.08,108.45c-21.39-12.72-44.15-19.07-68.29-19.07-14.92,0-27.95,3.61-39.1,10.84-11.15,7.23-16.73,15.68-16.73,25.36,0,17.27,14.28,28.43,42.85,33.49,17.73-25.36,44.82-42.23,81.27-50.61ZM164.89,131.75c-5.42-8.02-12.7-15.14-21.85-21.35-13.16,3.68-26,10.02-38.52,19.02-12.52,9-22.8,19.24-30.82,30.72,14.71,0,30.98-2.76,48.81-8.29,17.84-5.53,31.96-12.23,42.38-20.1ZM175.12,117.34c0-5.92-5.63-8.89-16.89-8.89-3.52,0-7.71.51-12.56,1.52,8.38,5.92,15.31,12.82,20.79,20.7,5.77-5.06,8.66-9.5,8.66-13.33Z"/>
    <path class="cls-2" d="M228.9,203.55c0,1.15-2.08,3.85-6.23,8.1-6.2,6.34-11.9,9.51-17.11,9.51-2.18,0-4.12-.43-5.81-1.3-9.29,13.51-18.03,20.27-26.19,20.27-4.22,0-7.83-1.79-10.83-5.36s-4.49-7.86-4.49-12.84c0-11.13,7.1-21.86,21.32-32.19,9.99-7.3,18.23-10.95,24.7-10.95,6.05,0,9.08,3.32,9.08,9.97,0,8.31-4.26,18.32-12.77,30.02,1.41.87,2.99,1.3,4.75,1.3,3.17,0,6.86-1.51,11.1-4.54,4.23-3.03,7.69-6.66,10.37-10.91.78-1.01,1.34-1.51,1.69-1.51.28,0,.42.14.42.43ZM211.75,188.97c0-5.85-2.57-8.78-7.71-8.78-6.4,0-14.21,6.29-23.43,18.86-9.22,12.57-13.82,23.16-13.82,31.75,0,4.99,2.32,7.48,6.96,7.48,7.6,0,15.9-6.43,24.91-19.29-2.04-2.31-3.06-4.7-3.06-7.15,0-3.54,1.37-7.19,4.12-10.95,2.74-3.76,5.42-5.64,8.02-5.64,1.13,0,1.9.72,2.32,2.17,1.12-2.53,1.69-5.35,1.69-8.45Z"/>
    <path class="cls-2" d="M270.61,205.11c-15.32,21.66-25.03,32.79-33.81,34.83-.52.12-2.57,0-3.02-.19-1.23-.51-2.76-1.32-4.01-4.33-1.25-3.01-2.47-7.49-1.49-14.89.92-7.09,5.58-11.87,7.25-13.38-.15-.12-.27-.25-.39-.37-.57-.62-.95-1.36-1.22-2.25-1.7,1.45-7,6.46-10.55,8.91-2.93,2.02-5.14,3.13-6.4,3.83-1.06.58-4.19,2.37-5.56,2.77-.24.06-.48,0-.66-.12,0-.03-.03-.03-.03-.03-.12-.12-.21-.25-.24-.4-.09-.4.12-.83.54-.96,7.66-2.19,20.69-18.06,26.42-35.27.24-.83.51-1.66.78-2.53.12-.4.54-.62.92-.49.39.12.6.56.51.96-.27.89-.54,1.76-.83,2.62-3.25,10.64-5.31,18.9-2.59,21.89.63.68,1.49,1.14,2.68,1.33.15.03.3.03.45.06,1.82.18,4.23-.12,7.28-.92.39-.09.78.12.89.49s-.03.77-.39.96c-11,5.52-16.79,18.99-16.1,26.23.18,1.85,1.08,4.08,3.07,5.15,2.88,1.55,12.01-.28,35.3-34.74.24-.37.72-.43,1.04-.22.33.25.42.74.18,1.08Z"/>
    <path class="cls-2" d="M306.48,178.78l-.85,1.63h-13.82l-23.54,41.29c-2.88,4.99-4.33,8.96-4.33,11.92,0,3.25,1.66,4.88,4.97,4.88,6.41,0,17.23-11.47,32.45-34.41.49-.72.92-1.08,1.27-1.08.42,0,.64.22.64.65-.07.22-.42.79-1.06,1.74l-4.54,6.4c-13.25,18.89-23.21,28.33-29.9,28.33-3.31,0-6.08-1.23-8.3-3.68-2.22-2.46-3.33-5.53-3.33-9.21,0-4.34,1.86-9.75,5.59-16.26l17.73-30.56h-10.77l1.05-1.63h10.55l24.86-43.06c2.11.58,4.12.87,6.02.87s4.01-.29,6.12-.87l-24.65,43.06h13.83Z"/>
    <path class="cls-2" d="M356.45,203.77c0,.22-.63,1.16-1.9,2.81l-4.54,5.84c-14.58,18.47-27.08,27.7-37.5,27.7-4.93,0-9.07-1.82-12.41-5.47s-5.02-8.22-5.02-13.71c0-13.01,8.83-24.46,26.49-34.36,9.29-5.2,16.85-7.8,22.69-7.8,2.53,0,4.7.78,6.49,2.33s2.69,3.45,2.69,5.69c0,5.2-3.31,9.63-9.92,13.28-6.62,3.65-17.66,7.06-33.14,10.24-4.79,7.44-7.18,13.66-7.18,18.64,0,6.21,3.28,9.32,9.83,9.32,11.13,0,24.75-11.14,40.88-33.44.85-1.15,1.55-1.73,2.11-1.73.28.07.42.29.42.65ZM347.54,183.66c0-2.31-1.23-3.47-3.69-3.47-3.73,0-8.64,2.66-14.72,7.97-6.09,5.31-12.05,12.19-17.89,20.65,10.13-2.67,18.72-6.45,25.75-11.33s10.55-9.48,10.55-13.82Z"/>
    <path class="cls-2" d="M419.73,180.03c0,2.38-3.24,5.49-9.71,9.31-7.18,6.21-19.35,15.95-36.52,29.23-2.25,1.66-5.21,3.93-8.87,6.82l3.06-.22c3.38-.22,6.37.98,8.97,3.58,2.6,2.6,4.29,5.92,5.07,9.97,4-2.31,9.56-7.14,16.65-14.5,7.1-7.36,12.4-13.74,15.91-19.15.84-1.3,1.51-1.95,2-1.95.21,0,.35.14.42.43,0,1.44-3.83,6.53-11.49,15.26-7.87,9.02-15.63,16.27-23.29,21.75v2.82c0,8.02-2.78,16.6-8.34,25.74-5.56,9.14-12.42,16.49-20.58,22.05-17.94,12.14-32.22,18.21-42.85,18.21-8.23,0-12.35-3.43-12.35-10.3,0-7.95,5.63-16.29,16.89-25.03,5.84-4.55,20.97-12.32,45.38-23.3,4.78-2.17,9.25-4.48,13.41-6.94,1.2-3.32,1.79-6.36,1.79-9.1,0-5.42-2.81-8.13-8.44-8.13-1.62,0-2.85.07-3.69.22l-1.47,1.3-3.9,3.79c-6.6,6.36-10.84,9.54-12.73,9.54-1.79,0-2.69-.83-2.69-2.49,0-4.62,6.51-9,19.53-13.11,19.63-15.24,34.62-27.13,44.96-35.66l-2.22,1.52c-3.94,2.82-7.53,4.23-10.77,4.23-2.32,0-5.28-1.55-8.87-4.66-3.31-2.82-6.05-4.23-8.23-4.23-4.36,0-10.96,5.6-19.78,16.8-.78.94-1.35,1.41-1.7,1.41-.28-.07-.42-.26-.42-.6,0-1.23,3.24-5.39,9.72-12.49,7.88-8.62,14.54-12.92,19.97-12.92,2.18,0,6.86,2.38,14.05,7.15,2.47,1.59,4.68,2.38,6.66,2.38,1.05,0,2.15-.29,3.27-.87l1.27-1.73,3.49-4.44c1.62-2.1,3.2-3.14,4.75-3.14,1.13,0,1.69.49,1.69,1.46ZM372.87,245.65c-1.76.94-11.79,5.82-30.08,14.63-13.58,6.43-24.24,13.13-31.98,20.1-7.74,6.97-11.61,13.35-11.61,19.13s3.59,8.45,10.77,8.45c10.06,0,21.65-6.48,34.78-19.45,13.12-12.97,22.5-27.26,28.13-42.86Z"/>
  </g>
  <text class="cls-1" transform="translate(56.63 286.97)"><tspan x="0" y="0">HOME SOLUTIONS</tspan></text>
</svg>