<?xml version="1.0" encoding="UTF-8"?>
<svg id="Layer_3" data-name="Layer 3" xmlns="http://www.w3.org/2000/svg" viewBox="0 0 432 432">
  <defs>
    <style>
      .cls-1 {
        fill: #b41f24;
      }
    </style>
  </defs>
  <g>
    <path d="M368.1,333.95v2.37c0,1.65-.75,3.16-1.95,4.25-1.21,1.08-2.89,1.77-4.72,1.76-1.85,0-3.53-.68-4.75-1.76-1.2-1.09-1.96-2.6-1.95-4.25v-10.09h-14.73c-2.35,0-4.46-1.27-5.36-3.23l-25.96-57.08h-23.76v6.41c.38.05.75.09,1.12.15,2.19.34,4.2.85,5.91,1.57,1.12.48,2.13,1.07,2.94,1.8.45.42.86.9,1.13,1.44.34.61.53,1.3.52,2.01v94.82c0,.52-.1,1.05-.3,1.53-.19.48-.46.93-.81,1.33-.68.8-1.59,1.44-2.62,1.97-2.08,1.05-4.74,1.71-7.64,2.1-1.95.25-3.99.38-6.03.38-2.36,0-4.7-.17-6.89-.51-2.18-.34-4.2-.85-5.9-1.57-1.14-.49-2.15-1.07-2.95-1.8-.47-.42-.86-.9-1.15-1.44-.33-.61-.52-1.3-.52-2v-94.82c0-.54.1-1.06.31-1.54.18-.48.47-.93.8-1.33.69-.81,1.59-1.44,2.62-1.97,2.09-1.05,4.74-1.71,7.64-2.1.09-.01.17-.02.26-.03v-11.59c0-1.43.65-2.74,1.7-3.67,1.03-.94,2.49-1.53,4.09-1.52h33.41c2.35,0,4.46,1.27,5.36,3.23l25.95,57.07h10.86v-8.12c0-1.65.75-3.17,1.95-4.25,1.21-1.09,2.89-1.77,4.75-1.77s3.51.67,4.72,1.77c1.2,1.08,1.95,2.6,1.95,4.25v2.36h14.48v-127.36l-72.05-53.98v5.2c0,.39-.04.77-.13,1.14h3.9c.61,0,1.21.09,1.72.26.79.25,1.42.66,1.86,1.16.43.49.68,1.08.68,1.7,0,.82-.44,1.58-1.18,2.15-.38.29-.84.53-1.36.7-.51.17-1.11.26-1.72.26h-7.94v55.43h4.83c.44,0,.85.13,1.13.35.28.23.39.53.31.82-.32,1.11-.46,2.08-.46,2.91,0,1.21-1.38,4.35,3.5,5.99,4.57,1.53,11.06,1.95,16.3,1.95,11.72,0,23.78-3.55,29.03-5.31.51-.17,1,.26.6.54-6.02,4.26-23.26,16.32-29.8,19.35-4.5,2.09-13.13,2.71-24.36,2.71-5.73,0-19.46-1.09-19.53-1.12-.4-.18-.65-.48-.66-.8-.1-2.51-.45-4.15-2.16-5.17-1.71-1.02-5.44-2.17-7.59-2.17-1.98,0-4.9.12-6.55.51-2.44.58-3.67,1.28-4.63,1.92-.96.65-1.37,1.87-1.37,1.87l-8.1.09-.35-25.21,9.2-.03s1.38,1.58,2.39,2.31,2.53,1.28,4.13,1.66c1.6.37,3.38.61,5.29.61,2.2,0,4.59-.32,7.15-1.16.05-.01,1.32-.57,2.7-2.13.27-.31.76-.51,1.29-.51h4.08v-55.43h-7.95c-.61,0-1.2-.09-1.72-.26-.79-.26-1.42-.67-1.85-1.16-.44-.49-.69-1.08-.69-1.69,0-.83.44-1.59,1.19-2.17.37-.28.83-.52,1.35-.69.52-.17,1.11-.26,1.72-.26h3.91c-.09-.37-.14-.75-.13-1.14v-21.65l-73.64-55.17-93.7,70.18c.14,1.02.26,2.05.26,3.12v82.4c0,1.07-.08,2.11-.22,3.13h8.59c1.78,0,3.43.9,4.59,2.33,1.18,1.45,1.91,3.46,1.91,5.66s-.73,4.21-1.91,5.66c-1.17,1.45-2.81,2.34-4.59,2.34h-16.35v94.77l5.52,21.75c.13.51.12,1.06-.04,1.58l-5.6,18.51c-.29.95-1.03,1.58-1.86,1.58h-11.2c-.82,0-1.57-.63-1.85-1.58l-5.6-18.51c-.16-.52-.17-1.07-.04-1.58l5.51-21.75v-94.77h-16.34c-1.79,0-3.42-.89-4.59-2.34-1.18-1.44-1.9-3.46-1.9-5.66s.73-4.21,1.9-5.66c1.18-1.43,2.81-2.33,4.59-2.33h8.59c-.14-1.02-.21-2.07-.21-3.13v-62.43l-43.15,32.32v224.03h132.07c-3.78-3.7-6.1-8.64-6.1-14.06,0-5.76,2.6-10.98,6.8-14.75,1.96-1.75,4.27-3.2,6.82-4.24-.06-.38-.09-.74-.09-1.13v-163.8c-7-1.82-13.1-5.57-17.52-10.56-4.73-5.33-7.55-12.09-7.55-19.43,0-5.49,1.57-10.65,4.34-15.14,2.77-4.48,6.73-8.28,11.49-11.06.59-.35,1.34-.38,1.94-.09.62.31,1,.9,1,1.51v27.15l15.97,8.28,15.97-8.28v-27.15c0-.61.38-1.2,1-1.51.61-.29,1.36-.26,1.94.09,4.77,2.78,8.72,6.58,11.5,11.06,2.77,4.49,4.35,9.64,4.35,15.14,0,7.34-2.83,14.1-7.56,19.43-4.42,4.99-10.51,8.73-17.52,10.56v163.8c0,.39-.03.75-.09,1.13,2.55,1.04,4.87,2.49,6.82,4.24,4.2,3.77,6.8,9,6.8,14.75,0,5.42-2.32,10.35-6.1,14.06h169.01v-72.8h-14.48Z"/>
    <path d="M205.32,400.66c2.27-2.04,3.67-4.85,3.68-7.96,0-3.12-1.4-5.92-3.68-7.96-2.27-2.04-5.4-3.3-8.87-3.3s-6.59,1.25-8.86,3.3c-2.27,2.04-3.67,4.84-3.67,7.96s1.4,5.92,3.67,7.96c2.27,2.04,5.4,3.29,8.86,3.3,3.47,0,6.6-1.26,8.87-3.3Z"/>
  </g>
  <polygon class="cls-1" points="19.48 188.42 19.48 159.84 214.95 13.42 410.37 159.83 410.37 188.42 214.95 42.01 19.48 188.42"/>
  <polygon points="288.58 15.65 310.53 15.65 310.53 75.7 288.58 59.62 288.58 15.65"/>
</svg>